<svg xmlns="http://www.w3.org/2000/svg" version="1.1" xmlns:xlink="http://www.w3.org/1999/xlink" xmlns:svgjs="http://svgjs.dev/svgjs" width="1000" height="1000" viewBox="0 0 1000 1000"><rect width="1000" height="1000" fill="#ffffff"></rect><g transform="matrix(0.7,0,0,0.7,150,106.25)"><svg viewBox="0 0 320 360" data-background-color="#ffffff" preserveAspectRatio="xMidYMid meet" height="1125" width="1000" xmlns="http://www.w3.org/2000/svg" xmlns:xlink="http://www.w3.org/1999/xlink"><g id="tight-bounds" transform="matrix(1,0,0,1,0,0)"><svg viewBox="0 0 320 360" height="360" width="320"><rect width="320" height="360" fill="#000000" mask="url(#1745156f-267a-47b0-8870-49fa2b1313c2)" data-fill-palette-color="tertiary"></rect><g><svg></svg></g><g><svg viewBox="0 0 320 360" height="360" width="320"><g><path xmlns="http://www.w3.org/2000/svg" d="M165.217 303.356c-1.404-1.755-2.809-0.702-2.808-1.755-8.426 2.106-24.223-3.511-30.894-2.809 1.404-2.106-2.106-1.755-2.106-3.159-1.404 2.106-2.809 0-4.915 0.702-2.106-5.266-10.532-1.404-11.585-8.075-4.915 0-6.67-2.809-11.586-5.617 0.351-0.351 0.702-0.351 1.054-0.702-2.457-0.351-2.457-1.755-4.564-1.755l0.702-1.405c-3.862-0.702-5.266-6.67-10.883-8.776-1.755-0.351-5.617-6.319-7.723-7.724-1.053-0.702-2.809-0.702-0.352-1.053-0.351-0.351-0.351-1.053 0-1.404-2.457-0.702-2.809-2.809-5.968-3.862-0.351-1.053 0.702-1.755 0-2.457-0.702-0.351-1.755 0.351-2.457 0-0.351 6.319 6.67 7.021 8.777 12.287-0.702-0.702-1.755-2.809-2.458-1.404-0.351 1.053 2.809 4.915 2.809 2.808-1.053 0.702-1.404-1.053-0.703-1.404 1.053 1.755 3.16 1.404 3.16 2.809-1.053 1.053-2.457-1.053-2.106 0.702 3.16 1.755 2.809 3.511 4.563 5.968-1.404-1.755-1.755 1.404-3.159 0-0.351-5.266-6.319-4.213-6.319-9.479-0.702-1.755-1.404-0.351-2.458-1.053 1.404-1.404-4.213-6.319-4.213-4.564-1.755-2.106-0.702-2.809-1.053-4.213-1.404-0.351-0.351 1.404-1.404 0.351 1.404-2.457-1.755-5.617-3.862-8.074l1.405-0.702c-2.457-1.404-2.809-4.213-4.564-7.373-2.106 3.16 4.213 10.181 3.159 11.585 0 0.351 2.457 3.16 3.16 4.564 2.809 4.915 4.915 10.883 8.777 13.692-0.702-0.351-0.351-2.457 0.702-1.404 0 1.053-0.702 2.106-0.702 3.159 2.106 2.106 3.862 3.862 5.968 5.968-4.564-2.809-9.128-5.617-12.288-9.83 1.755-0.351 3.511 2.809 4.915 2.458-3.511-2.809-2.457-3.862-3.861-7.372-1.404-1.053 0.351 1.404-1.054 1.755-4.564-4.213-8.075-6.67-10.181-10.532 0.351-0.351 0.702-0.702 0.703-1.404-0.351-0.351-0.351-0.351-0.703-0.702 2.106 2.106 2.809 3.862 5.266 4.212-1.053-1.053 0-1.404-1.404-2.457-0.702-1.404-1.755 0.702-2.457-0.351 0.702-1.053 0-2.457 0-3.511-0.702 0-1.404 0-1.756-1.053-0.702-0.351-1.053 0-1.404 0.702-0.351-0.351-0.351-1.053-0.702-1.404v-0.351c-0.351-0.351-0.702-1.053-1.053-1.405-2.809-7.372-4.564-17.202-8.426-23.521 1.053-4.213-0.702-12.638-1.755-14.745 1.053-1.755 0.351-9.83-0.351-11.234-1.755 0.702 0.351 4.564-1.404 5.617-1.755-7.723 1.053-16.5 0.351-23.521 0.702 0 1.404 0 1.404-0.351-1.053-1.053 0.702-3.16 0.351-5.617 1.404-3.16-3.16 4.564-3.16 7.723-0.351 0.702-1.755 0-1.404 1.756 0 2.457 0.702 7.372-0.702 10.883-0.702 0-0.702-0.702-1.404-0.351-0.351 1.755-0.702 3.862-1.053 5.617-0.351-0.702-0.702-1.755-0.703-2.107-1.755-8.777 0-18.958-0.702-26.33 1.404 0 1.404-2.106 2.458-2.808-0.351 2.809-1.053 6.319 0.702 7.021 1.404-13.692 4.213-28.787 10.532-43.532 4.564-10.883 11.234-21.766 19.308-30.543 0.702 1.053-0.351 3.511 0 4.564 7.021-7.372 11.585-16.149 19.309-21.064 0.351 1.755-3.16 3.16-3.16 4.564 3.16-3.16 4.213-2.106 7.724-3.159 1.053-1.404-1.404 0-1.756-1.405 2.106-1.404 3.511-3.16 4.915-4.212 0 0.351-0.351 0.351-0.351 0.702 3.862-1.053 4.213-3.16 7.022-3.862-0.351-0.351-1.053-0.702-2.107-0.351 0.702-0.351 1.755-1.053 2.809-1.404-0.351 0-0.351 0.351-0.702 0.351 2.106-1.053 0.351 0.351 0.351 1.053 0.351 0 0.702-0.351 0.702-0.351-2.106 1.404-3.511 2.106-4.213 4.564 1.053-0.702 1.404 0 2.809-1.054 1.404-0.702-0.351-1.755 0.702-2.457 1.053 0.702 2.457 0.351 3.51 0.351 0-0.702 0.351-1.404 1.054-1.755 0.351-0.702 0-1.053-0.352-1.053 0.351-0.351 0.702-0.351 1.405-0.703 0 0 0.351 0 0.351 0.351 5.968-2.809 12.638-5.266 18.957-7.372 3.862-0.351 8.777-0.351 10.883-2.808-0.702 0-1.404 0.351-1.755 0 0.351 0 1.053-0.351 1.404-0.351 0.702 0.702 1.755 0 0.702 1.404 0.351 0 0.351 0 0.703-0.351 0 0.351 0 0.351 0.351 0.702 0.351 0 0.702-0.351 1.053-1.053 0.351 0 0.702 0 1.053-0.351l-0.351 0.351c2.809-0.702 5.266-0.351 9.128-1.054 0-0.351 0-0.702 0-1.053 0.702 0 1.053-0.351 1.755-0.351v0.351c1.404-0.702 2.809 0.702 2.808 0 0.351 0 0.351 0 0.703 0 0 0.702-0.351 1.053-0.351 1.405 1.755 0 2.809 0 3.51-1.054-0.351-0.351-0.702-0.351-1.053-0.351 0.702 0 1.404-0.351 2.106-0.702 1.053 0.351 1.404 0.702 1.405 2.107 1.755-3.16 7.372 0.702 9.829 0 1.053 0 0.702-1.404 1.405-2.107 0.351 0 0.702 0 1.053 0 1.755 1.404 4.213 2.809 7.372 3.16-2.809-0.702 0.351-1.053 0.702-1.405-0.702 0-0.702-0.351-0.702-0.702 1.053 0 2.106 0.351 3.16 0.351 0 0.702 0.351 1.053 1.053 1.054 0.702 0 0.702-0.351 0.702-1.054 1.053 0 1.755 0 2.809 0.351-0.351 1.404 1.755 1.755 2.457 2.809-2.809-0.702-5.968-1.755-7.021 0 11.234 2.457 23.521 5.968 35.457 11.936 0 0 0 0 0 0.351h0.352c2.106 1.053 4.213 2.106 6.319 3.16 1.404 0.702 2.457 1.404 3.861 2.457 0 0.351 0 0.702 0.703 0.702h0.351c1.404 1.053 2.809 1.755 4.212 2.809 1.404 2.106 2.809 4.915 5.266 4.213 5.266 8.075 10.883 11.234 15.447 19.659 0.351-1.404 1.404 3.16 3.16 3.511-2.809-0.351 1.755 1.755-1.053 1.404 2.457 2.457 3.16 3.511 3.51 6.319-0.702-1.404-1.053-1.755-1.404-0.351-0.351 2.106 2.457-0.351 3.511 1.756-2.106 0-1.404 1.404-1.054 3.159 1.053-1.053 0.702-2.106 1.756-1.755 1.404 1.404-0.702 1.755-0.351 2.809 1.053-1.404 1.404-0.702 2.808 0-1.755 0.351 1.053 2.809-1.053 1.755 1.404 1.755 1.755 2.809 1.053 4.564-1.404-2.106-0.351-3.511-2.457-3.16 4.213 3.511 2.106 11.585 7.021 12.287-3.16 0.702 0 2.106-1.755 2.458 2.106 0.702 1.053 3.511 3.51 4.213-0.351 1.755-1.053 2.809-1.404 4.563 1.053 1.404 1.404 4.213 3.16 4.564-1.053 1.053-0.351 3.862-1.404 4.915 1.404-0.702 2.106-0.702 3.159 0.702-1.755 1.404-0.351 2.809-1.404 3.16 3.16 8.075-0.702 24.575 1.053 30.894-2.106-1.053-1.404 2.457-2.808 2.457 2.457 1.053 0.351 2.809 1.404 4.564-4.915 2.809 0 10.532-6.67 12.287 0.702 4.915-2.106 7.021-4.213 12.288-0.351-0.351-0.351-0.702-0.702-1.054-0.351 2.457-1.755 2.809-1.054 4.915l-1.404-0.702c0 3.862-5.968 5.968-7.372 11.936-0.351 1.755-5.617 6.319-7.022 8.777-0.702 1.053-0.351 2.809-1.053 0.351-0.351 0.351-1.053 0.351-1.404 0.351-0.351 2.457-2.457 3.16-3.16 6.319-0.702 0.351-1.755-0.702-2.457 0.351 0 0.702 0.702 1.755 0.351 2.458 6.319-0.351 6.319-7.723 11.234-10.181-0.351 1.053-2.457 2.106-1.053 2.808 1.053 0 4.213-3.511 2.457-3.159 1.053 0.702-1.053 1.404-1.404 1.053 1.755-1.404 1.053-3.16 2.458-3.511 1.053 0.702-1.053 2.457 1.053 2.107 1.404-3.16 3.16-3.511 5.266-5.266-1.404 1.404 1.755 1.755 0.351 3.159-5.266 1.053-3.511 7.021-8.777 7.724-1.404 1.053-0.351 1.404-0.702 2.457-1.755-1.053-5.617 4.915-4.213 4.564-1.755 1.755-2.809 1.053-4.212 1.404-0.351 1.404 1.404 0.351 0.702 1.405-2.457-1.053-5.617 2.457-7.724 4.915l-1.053-1.054c-1.053 2.809-3.862 3.16-7.021 5.266 3.511 1.755 9.479-5.617 11.234-4.564 0.351 0 3.16-2.809 4.213-3.861 4.564-3.511 10.181-6.319 12.287-10.181-0.351 0.702-2.457 0.702-1.404-0.351 1.053-0.351 2.106 0.351 3.159 0.351 5.617-7.723 12.638-14.043 17.905-23.17 0.351-0.351 0.702-1.053 1.053-1.756-0.702 2.106-1.755 3.862-2.458 5.968-5.617 3.862-7.723 15.096-14.393 16.851 0.351 3.862-3.16 4.915-4.915 9.479-1.053 1.404-1.755-1.053-2.809 0.702 1.053 4.915-8.777 4.564-8.425 9.128-0.702 0.351-1.755 0.702-2.458 1.404h-0.351c-0.351 0.351-0.351 0.351-0.702 0.702-1.755 1.053-3.16 2.106-4.564 3.16-4.915 2.809-11.585 4.915-16.851 7.723v-0.351c-1.404 0.702-3.16 0.351-2.809 1.756-1.053 0.702-2.106 1.404-3.159 2.106-0.351 0-0.351 0-0.702 0 0 0-0.351-0.351-0.702-0.351-0.702 0-0.702 0-1.054 0.351-4.564 0.351-10.532 2.457-12.287 3.862-1.755-1.053-9.83 0.702-11.234 1.404 0.702 1.053 2.809 0 4.564 0-1.053 0.351-2.106 0.702-2.458 1.404-0.351 0-0.351 0-0.702 0-0.351-1.053-1.404 0-1.755-0.351h0.351c-0.351-1.404-1.404-2.106-3.16-1.755 0 0.702 0 1.053-0.351 1.755 0.702 0 2.809-1.053 2.809 0-0.351 0-0.351 0.351 0 0.351-0.702 0.702-1.755 0.702-2.458 1.054-1.404 0-3.16 0-4.563 0-0.351-0.351-0.702-0.351-1.405-0.703-0.351 0.351-1.053 0.351-1.404 0.703-2.106 0-4.564 0.351-6.319 0.702 0-0.702 0-1.404-0.702-1.405-1.053 1.404-3.16-0.351-5.617 0.352-2.457-0.702 1.404 1.053 4.915 1.755-0.351 0.351-0.702 0.702-1.756 1.053M116.068 308.271c-4.915-4.564-15.096-6.67-16.851-10.181-2.809-0.351-7.021-5.617-10.532-6.319 1.755 0 0.351-1.053 0-1.755-0.702 0.702-1.404 1.053-2.106 1.053 0-2.809-2.809-4.564-5.266-6.319 1.755 1.053 3.16 1.755 5.266 2.106 0-0.702 0-1.404 0.702-1.404 2.457 2.457 5.266 4.915 8.425 7.372 4.213 3.862 25.979 13.692 29.841 15.447 0 0-0.702 1.404-0.351 1.404 1.755 1.053 3.16-1.053 3.511 1.404-5.617 0.702-7.723-3.16-12.639-2.808M277.909 226.824v0.351 0c-0.351 0 0-0.351 0-0.351M136.079 64.281c-0.351 0.351-0.702 0.351-0.702 0.351 0-0.351 0.351-0.351 0.702-0.351M129.409 66.036c0 0.351 0 0.351 0 0 0 0.351 0 0.351 0 0 0 0.351 0 0 0 0M106.238 73.408v0c0.351-0.351 0.351-0.351 0.703-0.351-0.351 0-0.702 0.351-0.703 0.351M162.409 61.823c-0.702 0-1.053 0-1.404-0.351 0.351 0 0.702 0 1.053 0h0.351c0 0 0 0 0 0.351M168.728 62.525c-0.351-0.351-1.404-0.702-2.457-0.702 0-0.351 0.351-0.702 0.351-0.702 0.351 0 0.702 0 1.053 0 0 0 0.351 0 0.351 0.351 0 0 0 0 0-0.351 0.351 0 0.351 0 0.702 0 0.351 0.702 0.702 1.053 0 1.404M180.313 63.579c-1.755 0.351-2.809-0.351-4.564-1.405 1.053 0 2.457 0.351 3.511 0.702 0.351 0 0.702 0.351 1.053 0.703M305.292 113.43c-0.702 0.351-1.053 0.351-1.755-1.053-5.617-11.936-15.798-29.138-30.543-43.532-14.394-14.745-33.702-26.681-51.255-33.001 1.053 0.351 2.457 1.053 1.755 1.756-15.447-5.968-30.192-9.479-44.234-10.883-37.915-5.968-77.585 2.106-108.128 21.766 0.351 0.702 0.351 1.053-0.702 1.755-11.234 7.021-27.032 19.309-39.671 35.458-12.638 16.149-22.468 36.511-26.681 54.766 0.351-1.053 0.702-2.809 1.405-2.107-9.128 36.16-6.67 67.053 5.968 93.735 0.702-0.702-1.755-4.213 0.351-3.862 1.404 3.862 3.16 8.075 5.266 11.936 2.457 5.617 5.266 12.989 9.128 14.745-9.83-19.309-16.5-41.426-17.203-61.085 1.404 2.809 1.053 8.777 3.16 11.234 0.702-13.34-2.457-31.245 2.106-43.883-1.053 6.67-1.755 15.798-1.053 24.925 0 6.67 3.16 25.277 5.266 27.032-0.351-0.351-0.351-2.106 0-2.106 1.053 2.106-1.404 3.16 0.351 3.511 0-0.702 0.351-0.702 0.702-0.703 3.511 7.723 8.075 19.66 11.585 25.628 4.213 7.723 9.83 14.745 16.149 21.064 0 0.351 0.351 0.351 0.352 0.702 0.702 1.755 3.16 3.862 3.861 5.266 0.351 0.702-0.351 1.755 0 2.458 5.266 9.83 12.989 19.66 22.468 27.383 5.968 7.021 15.447 14.394 27.032 20.713 11.234 5.968 24.223 10.883 36.16 13.691 8.426 2.106 18.606 2.457 24.926 3.862 8.426 1.755 23.17-0.702 30.542-2.107 44.234-6.67 88.117-36.862 110.235-80.393 22.819-43.883 22.117-97.596 2.457-138.671" fill="#000000" fill-rule="nonzero" stroke="none" stroke-width="1" stroke-linecap="butt" stroke-linejoin="miter" stroke-miterlimit="10" stroke-dasharray="" stroke-dashoffset="0" font-family="none" font-weight="none" font-size="none" text-anchor="none" style="mix-blend-mode: normal" data-fill-palette-color="tertiary"></path></g><g transform="matrix(1,0,0,1,93.87829211710189,108)"><svg viewBox="0 0 132.24341576579621 144" height="144" width="132.24341576579621"><g><svg viewBox="0 0 132.24341576579621 144" height="144" width="132.24341576579621"><g><svg viewBox="0 0 160 174.22417491698764" height="144" width="132.24341576579621"><g transform="matrix(1,0,0,1,0,88.72940378013102)"><svg viewBox="0 0 160 85.49477113685661" height="85.49477113685661" width="160"><g id="textblocktransform"><svg viewBox="0 0 160 85.49477113685661" height="85.49477113685661" width="160" id="textblock"><g><svg viewBox="0 0 160 59.279723729649724" height="59.279723729649724" width="160"><g transform="matrix(1,0,0,1,0,0)"><svg width="160" viewBox="-2.549999952316284 -37 101.34000396728516 37.54999923706055" height="59.279723729649724" data-palette-color="url(#d427b005-550a-4944-9b75-45f733a315a2)"></svg></g></svg></g><g transform="matrix(1,0,0,1,0,73.27424378885051)"><svg viewBox="0 0 160 12.2205273480061" height="12.2205273480061" width="160"><g transform="matrix(1,0,0,1,0,0)"><svg width="160" viewBox="3.0999999046325684 -35 458.8999938964844 35.04999923706055" height="12.2205273480061" data-palette-color="url(#d7d34f8a-321d-4ef1-a8b7-1d83e4a7d5af)"></svg></g></svg></g></svg></g></svg></g><g transform="matrix(1,0,0,1,30.560000000000002,0)"><svg viewBox="0 0 98.88 74.73488372093023" height="74.73488372093023" width="98.88"><g><svg xmlns="http://www.w3.org/2000/svg" xmlns:xlink="http://www.w3.org/1999/xlink" version="1.1" x="0" y="0" viewBox="6.5 18 86 65" enable-background="new 0 0 100 100" xml:space="preserve" height="74.73488372093023" width="98.88" class="icon-icon-0" data-fill-palette-color="accent" id="icon-0"></svg></g></svg></g><g></g></svg></g></svg></g></svg></g></svg></g><defs></defs><mask id="aa872ff2-6250-44de-b8e2-2aad6ab9590f"><g id="SvgjsG10113"><svg viewBox="0 0 320 360" height="360" width="320"><g><svg></svg></g><g><svg viewBox="0 0 320 360" height="360" width="320"><g></g><g transform="matrix(1,0,0,1,93.87829211710189,108)"><svg viewBox="0 0 132.24341576579621 144" height="144" width="132.24341576579621"><g><svg viewBox="0 0 132.24341576579621 144" height="144" width="132.24341576579621"><g><svg viewBox="0 0 160 174.22417491698764" height="144" width="132.24341576579621"><g transform="matrix(1,0,0,1,0,88.72940378013102)"><svg viewBox="0 0 160 85.49477113685661" height="85.49477113685661" width="160"><g id="SvgjsG10112"><svg viewBox="0 0 160 85.49477113685661" height="85.49477113685661" width="160" id="SvgjsSvg10111"><g><svg viewBox="0 0 160 59.279723729649724" height="59.279723729649724" width="160"><g transform="matrix(1,0,0,1,0,0)"><svg width="160" viewBox="-2.549999952316284 -37 101.34000396728516 37.54999923706055" height="59.279723729649724" data-palette-color="url(#d427b005-550a-4944-9b75-45f733a315a2)"><path d="M40.4-6.2Q41-5.8 41-5.05L41-5.05Q41-3.75 39.88-2.5 38.75-1.25 37.02-0.48 35.3 0.3 33.65 0.3L33.65 0.3Q31.05 0.3 29.68-1.63 28.3-3.55 27.98-4.98 27.65-6.4 27.1-10.1L27.1-10.1Q26.95-11.15 26.55-11.48 26.15-11.8 25-11.8L25-11.8 16.55-11.75Q12.45-5.1 9.15-2.27 5.85 0.55 2.15 0.55L2.15 0.55Q-0.15 0.55-1.35-0.35-2.55-1.25-2.55-2.7L-2.55-2.7Q-2.55-3.85-1.8-4.75-1.05-5.65 0.3-6L0.3-6Q0.3-4 0.88-3.33 1.45-2.65 2.75-2.65L2.75-2.65Q5.25-2.65 7.63-4.63 10-6.6 13.6-11.8L13.6-11.8Q12.45-11.9 11.98-12.2 11.5-12.5 11.5-13.1L11.5-13.1Q11.5-13.55 11.75-14.33 12-15.1 12.25-15.3L12.25-15.3Q13.05-15 15.5-14.65L15.5-14.65Q18.3-18.9 21.6-24.3 24.9-29.7 25.6-30.85L25.6-30.85Q26.55-32.4 28.3-35.3L28.3-35.3Q28.9-36.2 29.38-36.6 29.85-37 30.6-37L30.6-37Q31.25-37 32.15-36.75L32.15-36.75Q31.6-35.85 31.33-34.15 31.05-32.45 31-30.5L31-30.5 30.95-28.45Q30.95-25.85 31.08-22.38 31.2-18.9 31.35-16.7L31.35-16.7Q31.65-12.3 32.05-9.63 32.45-6.95 33.43-5.18 34.4-3.4 36.15-3.4L36.15-3.4Q37.3-3.4 38.4-4.17 39.5-4.95 40.4-6.2L40.4-6.2ZM23.25-14.15Q24.65-14.15 26.75-14.25L26.75-14.25 26.7-22.1Q26.7-26.3 27.05-29.05L27.05-29.05Q22.45-21.7 21.5-20.05L21.5-20.05 18.15-14.4Q21-14.15 23.25-14.15L23.25-14.15ZM44.45 0.5Q43.4 0.5 42.8-0.1 42.2-0.7 42.2-1.85L42.2-1.85Q42.2-3.35 43.12-4.35 44.05-5.35 45.55-5.35L45.55-5.35Q47.8-5.35 47.8-3.1L47.8-3.1Q47.8-1.6 46.87-0.55 45.95 0.5 44.45 0.5L44.45 0.5ZM91.4-6.2Q92-5.8 92-5.05L92-5.05Q92-3.75 90.87-2.5 89.75-1.25 88.02-0.48 86.3 0.3 84.65 0.3L84.65 0.3Q82.05 0.3 80.67-1.63 79.3-3.55 78.97-4.98 78.65-6.4 78.09-10.1L78.09-10.1Q77.95-11.15 77.55-11.48 77.15-11.8 76-11.8L76-11.8 67.55-11.75Q63.45-5.1 60.15-2.27 56.85 0.55 53.15 0.55L53.15 0.55Q50.85 0.55 49.65-0.35 48.45-1.25 48.45-2.7L48.45-2.7Q48.45-3.85 49.2-4.75 49.95-5.65 51.3-6L51.3-6Q51.3-4 51.87-3.33 52.45-2.65 53.75-2.65L53.75-2.65Q56.25-2.65 58.62-4.63 61-6.6 64.59-11.8L64.59-11.8Q63.45-11.9 62.97-12.2 62.5-12.5 62.5-13.1L62.5-13.1Q62.5-13.55 62.75-14.33 63-15.1 63.25-15.3L63.25-15.3Q64.05-15 66.5-14.65L66.5-14.65Q69.3-18.9 72.59-24.3 75.9-29.7 76.59-30.85L76.59-30.85Q77.55-32.4 79.3-35.3L79.3-35.3Q79.9-36.2 80.37-36.6 80.84-37 81.59-37L81.59-37Q82.25-37 83.15-36.75L83.15-36.75Q82.59-35.85 82.32-34.15 82.05-32.45 82-30.5L82-30.5 81.95-28.45Q81.95-25.85 82.07-22.38 82.2-18.9 82.34-16.7L82.34-16.7Q82.65-12.3 83.05-9.63 83.45-6.95 84.42-5.18 85.4-3.4 87.15-3.4L87.15-3.4Q88.3-3.4 89.4-4.17 90.5-4.95 91.4-6.2L91.4-6.2ZM74.25-14.15Q75.65-14.15 77.75-14.25L77.75-14.25 77.7-22.1Q77.7-26.3 78.05-29.05L78.05-29.05Q73.45-21.7 72.5-20.05L72.5-20.05 69.15-14.4Q72-14.15 74.25-14.15L74.25-14.15ZM95.44 0.5Q94.39 0.5 93.79-0.1 93.19-0.7 93.19-1.85L93.19-1.85Q93.19-3.35 94.12-4.35 95.04-5.35 96.54-5.35L96.54-5.35Q98.79-5.35 98.79-3.1L98.79-3.1Q98.79-1.6 97.87-0.55 96.94 0.5 95.44 0.5L95.44 0.5Z" opacity="1" transform="matrix(1,0,0,1,0,0)" fill="white" class="wordmark-text-0" id="SvgjsPath10110"></path></svg></g></svg></g><g transform="matrix(1,0,0,1,0,73.27424378885051)"><svg viewBox="0 0 160 12.2205273480061" height="12.2205273480061" width="160"><g transform="matrix(1,0,0,1,0,0)"><svg width="160" viewBox="3.0999999046325684 -35 458.8999938964844 35.04999923706055" height="12.2205273480061" data-palette-color="url(#d7d34f8a-321d-4ef1-a8b7-1d83e4a7d5af)"></svg></g></svg></g></svg></g></svg></g><g transform="matrix(1,0,0,1,30.560000000000002,0)"><svg viewBox="0 0 98.88 74.73488372093023" height="74.73488372093023" width="98.88"><g><svg xmlns="http://www.w3.org/2000/svg" xmlns:xlink="http://www.w3.org/1999/xlink" version="1.1" x="0" y="0" viewBox="6.5 18 86 65" enable-background="new 0 0 100 100" xml:space="preserve" height="74.73488372093023" width="98.88" class="icon-icon-0" data-fill-palette-color="accent" id="SvgjsSvg10108"></svg></g></svg></g><g></g></svg></g></svg></g></svg></g></svg></g><defs><mask></mask></defs></svg></g></mask><linearGradient x1="0" x2="1" y1="0.5" y2="0.5" id="d427b005-550a-4944-9b75-45f733a315a2"><stop stop-color="#f00b51" offset="0"></stop><stop stop-color="#730062" offset="1"></stop></linearGradient><rect width="320" height="360" fill="#000000" mask="url(#aa872ff2-6250-44de-b8e2-2aad6ab9590f)" data-fill-palette-color="primary"></rect><mask id="5071e85b-4247-4519-a496-7e2add146126"><g id="SvgjsG10123"><svg viewBox="0 0 320 360" height="360" width="320"><g><svg></svg></g><g><svg viewBox="0 0 320 360" height="360" width="320"><g></g><g transform="matrix(1,0,0,1,93.87829211710189,108)"><svg viewBox="0 0 132.24341576579621 144" height="144" width="132.24341576579621"><g><svg viewBox="0 0 132.24341576579621 144" height="144" width="132.24341576579621"><g><svg viewBox="0 0 160 174.22417491698764" height="144" width="132.24341576579621"><g transform="matrix(1,0,0,1,0,88.72940378013102)"><svg viewBox="0 0 160 85.49477113685661" height="85.49477113685661" width="160"><g id="SvgjsG10122"><svg viewBox="0 0 160 85.49477113685661" height="85.49477113685661" width="160" id="SvgjsSvg10121"><g><svg viewBox="0 0 160 59.279723729649724" height="59.279723729649724" width="160"><g transform="matrix(1,0,0,1,0,0)"><svg width="160" viewBox="-2.549999952316284 -37 101.34000396728516 37.54999923706055" height="59.279723729649724" data-palette-color="url(#d427b005-550a-4944-9b75-45f733a315a2)"></svg></g></svg></g><g transform="matrix(1,0,0,1,0,73.27424378885051)"><svg viewBox="0 0 160 12.2205273480061" height="12.2205273480061" width="160"><g transform="matrix(1,0,0,1,0,0)"><svg width="160" viewBox="3.0999999046325684 -35 458.8999938964844 35.04999923706055" height="12.2205273480061" data-palette-color="url(#d7d34f8a-321d-4ef1-a8b7-1d83e4a7d5af)"><path d="M17.95 0L6.6 0Q5.2 0 4.15-1.05 3.1-2.1 3.1-3.65L3.1-3.65 3.1-31.35Q3.1-32.9 4.15-33.95 5.2-35 6.6-35L6.6-35 17.95-35Q19.55-35 20.58-33.95 21.6-32.9 21.6-31.35L21.6-31.35 21.6-3.65Q21.6-2.1 20.58-1.05 19.55 0 17.95 0L17.95 0ZM9.45-4.6L9.45-4.6 15.1-4.6Q15.95-4.6 16.48-5.15 17-5.7 17-6.5L17-6.5 17-28.5Q17-29.35 16.48-29.88 15.95-30.4 15.1-30.4L15.1-30.4 9.45-30.4Q8.75-30.4 8.22-29.88 7.7-29.35 7.7-28.5L7.7-28.5 7.7-6.5Q7.7-5.7 8.22-5.15 8.75-4.6 9.45-4.6ZM29.95 0L25.3 0 25.3-35 29.95-35 39.25-11.65 39.25-35 43.9-35 43.9 0 39.25 0 29.95-23.35 29.95 0ZM66.7 0L48.1 0 48.1-35 66.7-35 66.7-30.4 52.75-30.4 52.75-21.7 62.05-21.7 61-17.05 52.75-17.05 52.75-4.65 66.7-4.65 66.7 0ZM96.5 0L79.9 0 79.9-35 84.55-35 84.55-4.65 96.5-4.65 96.5 0ZM104.15 0L99.5 0 99.5-35 104.15-35 104.15 0ZM112.5 0L107.85 0 107.85-35 112.5-35 121.8-11.65 121.8-35 126.45-35 126.45 0 121.8 0 112.5-23.35 112.5 0ZM149.25 0L130.65 0 130.65-35 149.25-35 149.25-30.4 135.3-30.4 135.3-21.7 144.6-21.7 143.55-17.05 135.3-17.05 135.3-4.65 149.25-4.65 149.25 0ZM177.3 0L165.95 0Q164.55 0 163.5-1.05 162.45-2.1 162.45-3.65L162.45-3.65 162.45-31.35Q162.45-32.9 163.5-33.95 164.55-35 165.95-35L165.95-35 177.3-35Q178.9-35 179.93-33.95 180.95-32.9 180.95-31.35L180.95-31.35 180.95-3.65Q180.95-2.1 179.93-1.05 178.9 0 177.3 0L177.3 0ZM168.8-4.6L168.8-4.6 174.45-4.6Q175.3-4.6 175.83-5.15 176.35-5.7 176.35-6.5L176.35-6.5 176.35-28.5Q176.35-29.35 175.83-29.88 175.3-30.4 174.45-30.4L174.45-30.4 168.8-30.4Q168.1-30.4 167.58-29.88 167.05-29.35 167.05-28.5L167.05-28.5 167.05-6.5Q167.05-5.7 167.58-5.15 168.1-4.6 168.8-4.6ZM189.3 0L184.65 0 184.65-35 203.25-35 203.25-30.35 189.3-30.35 189.3-21.7 198.6-21.7 197.55-17.05 189.3-17.05 189.3 0ZM229.4 0L218.05 0Q216.65 0 215.55-1.05 214.45-2.1 214.45-3.6L214.45-3.6 214.45-31.4Q214.45-32.85 215.55-33.93 216.65-35 218.05-35L218.05-35 229.4-35Q230.95-35 231.98-33.93 233-32.85 233-31.4L233-31.4 233-24.9 228.35-23.85 228.35-28.55Q228.35-29.25 227.88-29.8 227.4-30.35 226.6-30.35L226.6-30.35 220.9-30.35Q220.2-30.35 219.65-29.8 219.1-29.25 219.1-28.55L219.1-28.55 219.1-6.45Q219.1-5.65 219.65-5.15 220.2-4.65 220.9-4.65L220.9-4.65 226.6-4.65Q227.4-4.65 227.88-5.15 228.35-5.65 228.35-6.45L228.35-6.45 228.35-10.1 233-11.2 233-3.6Q233-2.1 231.98-1.05 230.95 0 229.4 0L229.4 0ZM251.05 0L239.7 0Q238.3 0 237.25-1.05 236.2-2.1 236.2-3.65L236.2-3.65 236.2-31.35Q236.2-32.9 237.25-33.95 238.3-35 239.7-35L239.7-35 251.05-35Q252.65-35 253.68-33.95 254.7-32.9 254.7-31.35L254.7-31.35 254.7-3.65Q254.7-2.1 253.68-1.05 252.65 0 251.05 0L251.05 0ZM242.55-4.6L242.55-4.6 248.2-4.6Q249.05-4.6 249.58-5.15 250.1-5.7 250.1-6.5L250.1-6.5 250.1-28.5Q250.1-29.35 249.58-29.88 249.05-30.4 248.2-30.4L248.2-30.4 242.55-30.4Q241.85-30.4 241.33-29.88 240.8-29.35 240.8-28.5L240.8-28.5 240.8-6.5Q240.8-5.7 241.33-5.15 241.85-4.6 242.55-4.6ZM273.4 0L258.4 0 258.4-35 273.4-35Q274.85-35 275.9-33.95 276.95-32.9 276.95-31.4L276.95-31.4 276.95-3.6Q276.95-2.1 275.9-1.05 274.85 0 273.4 0L273.4 0ZM263.05-30.35L263.05-4.65 270.55-4.65Q271.25-4.65 271.8-5.18 272.35-5.7 272.35-6.45L272.35-6.45 272.35-28.55Q272.35-29.3 271.8-29.83 271.25-30.35 270.55-30.35L270.55-30.35 263.05-30.35ZM299.25 0L280.65 0 280.65-35 299.25-35 299.25-30.4 285.3-30.4 285.3-21.7 294.6-21.7 293.55-17.05 285.3-17.05 285.3-4.65 299.25-4.65 299.25 0ZM315.1 0.05L310.45 0.05 317.5-34.95 322.05-34.95 329 0.05 324.35 0.05 323-6.5 316.35-6.5 315.1 0.05ZM319.8-23.55L317.25-11.1 322.2-11.1 319.8-23.55ZM339.1 0L334.45 0 334.45-30.35 327.5-30.35 327.5-35 346.05-35 346.05-30.35 339.1-30.35 339.1 0ZM361.7 0.05L357.05 0.05 364.1-34.95 368.65-34.95 375.6 0.05 370.95 0.05 369.6-6.5 362.95-6.5 361.7 0.05ZM366.4-23.55L363.85-11.1 368.8-11.1 366.4-23.55ZM398.2 0L393.55 0 393.55-30.35 386.6-30.35 386.6-35 405.15-35 405.15-30.35 398.2-30.35 398.2 0ZM412.8 0L408.15 0 408.15-35 412.8-35 412.8 0ZM421.15 0L416.5 0 416.5-35 421.15-35 428.1-13.65 435.05-35 439.7-35 439.7 0 435.05 0 435.05-20.8 430.4-6.55 425.8-6.55 421.15-20.8 421.15 0ZM462 0L443.4 0 443.4-35 462-35 462-30.4 448.05-30.4 448.05-21.7 457.35-21.7 456.3-17.05 448.05-17.05 448.05-4.65 462-4.65 462 0Z" opacity="1" transform="matrix(1,0,0,1,0,0)" fill="white" class="slogan-text-1" id="SvgjsPath10120"></path></svg></g></svg></g></svg></g></svg></g><g transform="matrix(1,0,0,1,30.560000000000002,0)"><svg viewBox="0 0 98.88 74.73488372093023" height="74.73488372093023" width="98.88"><g><svg xmlns="http://www.w3.org/2000/svg" xmlns:xlink="http://www.w3.org/1999/xlink" version="1.1" x="0" y="0" viewBox="6.5 18 86 65" enable-background="new 0 0 100 100" xml:space="preserve" height="74.73488372093023" width="98.88" class="icon-icon-0" data-fill-palette-color="accent" id="SvgjsSvg10119"></svg></g></svg></g><g></g></svg></g></svg></g></svg></g></svg></g><defs><mask></mask></defs><mask><g id="SvgjsG10118"><svg viewBox="0 0 320 360" height="360" width="320"><g><svg></svg></g><g><svg viewBox="0 0 320 360" height="360" width="320"><g></g><g transform="matrix(1,0,0,1,93.87829211710189,108)"><svg viewBox="0 0 132.24341576579621 144" height="144" width="132.24341576579621"><g><svg viewBox="0 0 132.24341576579621 144" height="144" width="132.24341576579621"><g><svg viewBox="0 0 160 174.22417491698764" height="144" width="132.24341576579621"><g transform="matrix(1,0,0,1,0,88.72940378013102)"><svg viewBox="0 0 160 85.49477113685661" height="85.49477113685661" width="160"><g id="SvgjsG10117"><svg viewBox="0 0 160 85.49477113685661" height="85.49477113685661" width="160" id="SvgjsSvg10116"><g><svg viewBox="0 0 160 59.279723729649724" height="59.279723729649724" width="160"><g transform="matrix(1,0,0,1,0,0)"><svg width="160" viewBox="-2.549999952316284 -37 101.34000396728516 37.54999923706055" height="59.279723729649724" data-palette-color="url(#d427b005-550a-4944-9b75-45f733a315a2)"></svg></g></svg></g><g transform="matrix(1,0,0,1,0,73.27424378885051)"><svg viewBox="0 0 160 12.2205273480061" height="12.2205273480061" width="160"><g transform="matrix(1,0,0,1,0,0)"><svg width="160" viewBox="3.0999999046325684 -35 458.8999938964844 35.04999923706055" height="12.2205273480061" data-palette-color="url(#d7d34f8a-321d-4ef1-a8b7-1d83e4a7d5af)"></svg></g></svg></g></svg></g></svg></g><g transform="matrix(1,0,0,1,30.560000000000002,0)"><svg viewBox="0 0 98.88 74.73488372093023" height="74.73488372093023" width="98.88"><g><svg xmlns="http://www.w3.org/2000/svg" xmlns:xlink="http://www.w3.org/1999/xlink" version="1.1" x="0" y="0" viewBox="6.5 18 86 65" enable-background="new 0 0 100 100" xml:space="preserve" height="74.73488372093023" width="98.88" class="icon-icon-0" data-fill-palette-color="accent" id="SvgjsSvg10114"></svg></g></svg></g><g></g></svg></g></svg></g></svg></g></svg></g><defs><mask></mask></defs></svg></g></mask></svg></g></mask><linearGradient x1="0" x2="1" y1="0.5" y2="0.5" id="d7d34f8a-321d-4ef1-a8b7-1d83e4a7d5af"><stop stop-color="#f00b51" offset="0"></stop><stop stop-color="#730062" offset="1"></stop></linearGradient><rect width="320" height="360" fill="#000000" mask="url(#5071e85b-4247-4519-a496-7e2add146126)" data-fill-palette-color="secondary"></rect><mask id="1061264a-e6dd-4f42-bb9f-3a70e3d25b60"><g id="SvgjsG10141"><svg viewBox="0 0 320 360" height="360" width="320"><g><svg></svg></g><g><svg viewBox="0 0 320 360" height="360" width="320"><g></g><g transform="matrix(1,0,0,1,93.87829211710189,108)"><svg viewBox="0 0 132.24341576579621 144" height="144" width="132.24341576579621"><g><svg viewBox="0 0 132.24341576579621 144" height="144" width="132.24341576579621"><g><svg viewBox="0 0 160 174.22417491698764" height="144" width="132.24341576579621"><g transform="matrix(1,0,0,1,0,88.72940378013102)"><svg viewBox="0 0 160 85.49477113685661" height="85.49477113685661" width="160"><g id="SvgjsG10140"><svg viewBox="0 0 160 85.49477113685661" height="85.49477113685661" width="160" id="SvgjsSvg10139"><g><svg viewBox="0 0 160 59.279723729649724" height="59.279723729649724" width="160"><g transform="matrix(1,0,0,1,0,0)"><svg width="160" viewBox="-2.549999952316284 -37 101.34000396728516 37.54999923706055" height="59.279723729649724" data-palette-color="url(#d427b005-550a-4944-9b75-45f733a315a2)"></svg></g></svg></g><g transform="matrix(1,0,0,1,0,73.27424378885051)"><svg viewBox="0 0 160 12.2205273480061" height="12.2205273480061" width="160"><g transform="matrix(1,0,0,1,0,0)"><svg width="160" viewBox="3.0999999046325684 -35 458.8999938964844 35.04999923706055" height="12.2205273480061" data-palette-color="url(#d7d34f8a-321d-4ef1-a8b7-1d83e4a7d5af)"></svg></g></svg></g></svg></g></svg></g><g transform="matrix(1,0,0,1,30.560000000000002,0)"><svg viewBox="0 0 98.88 74.73488372093023" height="74.73488372093023" width="98.88"><g><svg xmlns="http://www.w3.org/2000/svg" xmlns:xlink="http://www.w3.org/1999/xlink" version="1.1" x="0" y="0" viewBox="6.5 18 86 65" enable-background="new 0 0 100 100" xml:space="preserve" height="74.73488372093023" width="98.88" class="icon-icon-0" data-fill-palette-color="accent" id="SvgjsSvg10138"><g fill="white"><path d="M35.845 61.275l-10.72-5.09c-1.209-0.572-1.94-1.463-1.94-2.703v-0.318c0-1.24 0.731-2.131 1.94-2.704l10.72-5.089c0.381-0.191 0.731-0.318 1.177-0.318 1.018-0.031 1.94 0.859 1.94 2.004 0 0.922-0.509 1.559-1.336 1.94l-9.606 4.294 9.606 4.295c0.827 0.381 1.336 1.113 1.336 2.004 0 1.177-0.922 2.004-2.1 1.972C36.513 61.562 36.163 61.435 35.845 61.275z" fill="white"></path><path d="M41.889 66.047l12.438-25.988c0.35-0.731 0.922-1.113 1.686-1.113 1.018 0 1.876 0.859 1.876 1.813 0 0.35-0.127 0.7-0.222 0.923L45.229 67.669c-0.35 0.731-0.922 1.113-1.686 1.113-1.018 0-1.876-0.858-1.876-1.813C41.667 66.619 41.793 66.27 41.889 66.047z" fill="white"></path><path d="M64.155 45.371l10.72 5.089c1.208 0.573 1.94 1.464 1.94 2.704v0.318c0 1.24-0.731 2.131-1.94 2.703l-10.72 5.09c-0.381 0.191-0.731 0.318-1.177 0.318-1.018 0.031-1.94-0.859-1.94-2.004 0-0.923 0.509-1.559 1.336-1.94l9.606-4.295-9.606-4.294c-0.827-0.381-1.336-1.113-1.336-2.004 0-1.177 0.923-2.004 2.1-1.973C63.487 45.084 63.837 45.212 64.155 45.371z" fill="white"></path></g><path d="M92.5 21c0-1.657-1.343-3-3-3h-80c-1.657 0-3 1.343-3 3v59c0 1.657 1.343 3 3 3h80c1.657 0 3-1.343 3-3V21zM26 20.833c1.196 0 2.167 0.97 2.167 2.167s-0.97 2.167-2.167 2.167-2.167-0.97-2.167-2.167S24.804 20.833 26 20.833zM20 20.833c1.196 0 2.167 0.97 2.167 2.167s-0.97 2.167-2.167 2.167-2.167-0.97-2.167-2.167S18.804 20.833 20 20.833zM14 20.833c1.196 0 2.167 0.97 2.167 2.167s-0.97 2.167-2.167 2.167-2.167-0.97-2.167-2.167S12.804 20.833 14 20.833zM88.5 79h-78V29h78V79z" fill="white"></path></svg></g></svg></g><g></g></svg></g></svg></g></svg></g></svg></g><defs><mask></mask></defs><mask><g id="SvgjsG10137"><svg viewBox="0 0 320 360" height="360" width="320"><g><svg></svg></g><g><svg viewBox="0 0 320 360" height="360" width="320"><g></g><g transform="matrix(1,0,0,1,93.87829211710189,108)"><svg viewBox="0 0 132.24341576579621 144" height="144" width="132.24341576579621"><g><svg viewBox="0 0 132.24341576579621 144" height="144" width="132.24341576579621"><g><svg viewBox="0 0 160 174.22417491698764" height="144" width="132.24341576579621"><g transform="matrix(1,0,0,1,0,88.72940378013102)"><svg viewBox="0 0 160 85.49477113685661" height="85.49477113685661" width="160"><g id="SvgjsG10136"><svg viewBox="0 0 160 85.49477113685661" height="85.49477113685661" width="160" id="SvgjsSvg10135"><g><svg viewBox="0 0 160 59.279723729649724" height="59.279723729649724" width="160"><g transform="matrix(1,0,0,1,0,0)"><svg width="160" viewBox="-2.549999952316284 -37 101.34000396728516 37.54999923706055" height="59.279723729649724" data-palette-color="url(#d427b005-550a-4944-9b75-45f733a315a2)"></svg></g></svg></g><g transform="matrix(1,0,0,1,0,73.27424378885051)"><svg viewBox="0 0 160 12.2205273480061" height="12.2205273480061" width="160"><g transform="matrix(1,0,0,1,0,0)"><svg width="160" viewBox="3.0999999046325684 -35 458.8999938964844 35.04999923706055" height="12.2205273480061" data-palette-color="url(#d7d34f8a-321d-4ef1-a8b7-1d83e4a7d5af)"></svg></g></svg></g></svg></g></svg></g><g transform="matrix(1,0,0,1,30.560000000000002,0)"><svg viewBox="0 0 98.88 74.73488372093023" height="74.73488372093023" width="98.88"><g><svg xmlns="http://www.w3.org/2000/svg" xmlns:xlink="http://www.w3.org/1999/xlink" version="1.1" x="0" y="0" viewBox="6.5 18 86 65" enable-background="new 0 0 100 100" xml:space="preserve" height="74.73488372093023" width="98.88" class="icon-icon-0" data-fill-palette-color="accent" id="SvgjsSvg10133"></svg></g></svg></g><g></g></svg></g></svg></g></svg></g></svg></g><defs><mask></mask></defs></svg></g></mask><mask><g id="SvgjsG10132"><svg viewBox="0 0 320 360" height="360" width="320"><g><svg></svg></g><g><svg viewBox="0 0 320 360" height="360" width="320"><g></g><g transform="matrix(1,0,0,1,93.87829211710189,108)"><svg viewBox="0 0 132.24341576579621 144" height="144" width="132.24341576579621"><g><svg viewBox="0 0 132.24341576579621 144" height="144" width="132.24341576579621"><g><svg viewBox="0 0 160 174.22417491698764" height="144" width="132.24341576579621"><g transform="matrix(1,0,0,1,0,88.72940378013102)"><svg viewBox="0 0 160 85.49477113685661" height="85.49477113685661" width="160"><g id="SvgjsG10131"><svg viewBox="0 0 160 85.49477113685661" height="85.49477113685661" width="160" id="SvgjsSvg10130"><g><svg viewBox="0 0 160 59.279723729649724" height="59.279723729649724" width="160"><g transform="matrix(1,0,0,1,0,0)"><svg width="160" viewBox="-2.549999952316284 -37 101.34000396728516 37.54999923706055" height="59.279723729649724" data-palette-color="url(#d427b005-550a-4944-9b75-45f733a315a2)"></svg></g></svg></g><g transform="matrix(1,0,0,1,0,73.27424378885051)"><svg viewBox="0 0 160 12.2205273480061" height="12.2205273480061" width="160"><g transform="matrix(1,0,0,1,0,0)"><svg width="160" viewBox="3.0999999046325684 -35 458.8999938964844 35.04999923706055" height="12.2205273480061" data-palette-color="url(#d7d34f8a-321d-4ef1-a8b7-1d83e4a7d5af)"></svg></g></svg></g></svg></g></svg></g><g transform="matrix(1,0,0,1,30.560000000000002,0)"><svg viewBox="0 0 98.88 74.73488372093023" height="74.73488372093023" width="98.88"><g><svg xmlns="http://www.w3.org/2000/svg" xmlns:xlink="http://www.w3.org/1999/xlink" version="1.1" x="0" y="0" viewBox="6.5 18 86 65" enable-background="new 0 0 100 100" xml:space="preserve" height="74.73488372093023" width="98.88" class="icon-icon-0" data-fill-palette-color="accent" id="SvgjsSvg10128"></svg></g></svg></g><g></g></svg></g></svg></g></svg></g></svg></g><defs><mask></mask></defs><mask><g id="SvgjsG10127"><svg viewBox="0 0 320 360" height="360" width="320"><g><svg></svg></g><g><svg viewBox="0 0 320 360" height="360" width="320"><g></g><g transform="matrix(1,0,0,1,93.87829211710189,108)"><svg viewBox="0 0 132.24341576579621 144" height="144" width="132.24341576579621"><g><svg viewBox="0 0 132.24341576579621 144" height="144" width="132.24341576579621"><g><svg viewBox="0 0 160 174.22417491698764" height="144" width="132.24341576579621"><g transform="matrix(1,0,0,1,0,88.72940378013102)"><svg viewBox="0 0 160 85.49477113685661" height="85.49477113685661" width="160"><g id="SvgjsG10126"><svg viewBox="0 0 160 85.49477113685661" height="85.49477113685661" width="160" id="SvgjsSvg10125"><g><svg viewBox="0 0 160 59.279723729649724" height="59.279723729649724" width="160"><g transform="matrix(1,0,0,1,0,0)"><svg width="160" viewBox="-2.549999952316284 -37 101.34000396728516 37.54999923706055" height="59.279723729649724" data-palette-color="url(#d427b005-550a-4944-9b75-45f733a315a2)"></svg></g></svg></g><g transform="matrix(1,0,0,1,0,73.27424378885051)"><svg viewBox="0 0 160 12.2205273480061" height="12.2205273480061" width="160"><g transform="matrix(1,0,0,1,0,0)"><svg width="160" viewBox="3.0999999046325684 -35 458.8999938964844 35.04999923706055" height="12.2205273480061" data-palette-color="url(#d7d34f8a-321d-4ef1-a8b7-1d83e4a7d5af)"></svg></g></svg></g></svg></g></svg></g><g transform="matrix(1,0,0,1,30.560000000000002,0)"><svg viewBox="0 0 98.88 74.73488372093023" height="74.73488372093023" width="98.88"><g><svg xmlns="http://www.w3.org/2000/svg" xmlns:xlink="http://www.w3.org/1999/xlink" version="1.1" x="0" y="0" viewBox="6.5 18 86 65" enable-background="new 0 0 100 100" xml:space="preserve" height="74.73488372093023" width="98.88" class="icon-icon-0" data-fill-palette-color="accent" id="SvgjsSvg10124"></svg></g></svg></g><g></g></svg></g></svg></g></svg></g></svg></g><defs><mask></mask></defs></svg></g></mask></svg></g></mask></svg></g></mask><linearGradient x1="0" x2="1" y1="0.5" y2="0.5" id="f69826c0-51bd-45bd-b4f6-0d58cc2ce903"><stop stop-color="#f00b51" offset="0"></stop><stop stop-color="#730062" offset="1"></stop></linearGradient><rect width="320" height="360" fill="#000000" mask="url(#1061264a-e6dd-4f42-bb9f-3a70e3d25b60)" data-fill-palette-color="accent"></rect><mask id="1745156f-267a-47b0-8870-49fa2b1313c2"><g id="SvgjsG10175"><svg viewBox="0 0 320 360" height="360" width="320"><g><svg></svg></g><g><svg viewBox="0 0 320 360" height="360" width="320"><g><path xmlns="http://www.w3.org/2000/svg" d="M165.217 303.356c-1.404-1.755-2.809-0.702-2.808-1.755-8.426 2.106-24.223-3.511-30.894-2.809 1.404-2.106-2.106-1.755-2.106-3.159-1.404 2.106-2.809 0-4.915 0.702-2.106-5.266-10.532-1.404-11.585-8.075-4.915 0-6.67-2.809-11.586-5.617 0.351-0.351 0.702-0.351 1.054-0.702-2.457-0.351-2.457-1.755-4.564-1.755l0.702-1.405c-3.862-0.702-5.266-6.67-10.883-8.776-1.755-0.351-5.617-6.319-7.723-7.724-1.053-0.702-2.809-0.702-0.352-1.053-0.351-0.351-0.351-1.053 0-1.404-2.457-0.702-2.809-2.809-5.968-3.862-0.351-1.053 0.702-1.755 0-2.457-0.702-0.351-1.755 0.351-2.457 0-0.351 6.319 6.67 7.021 8.777 12.287-0.702-0.702-1.755-2.809-2.458-1.404-0.351 1.053 2.809 4.915 2.809 2.808-1.053 0.702-1.404-1.053-0.703-1.404 1.053 1.755 3.16 1.404 3.16 2.809-1.053 1.053-2.457-1.053-2.106 0.702 3.16 1.755 2.809 3.511 4.563 5.968-1.404-1.755-1.755 1.404-3.159 0-0.351-5.266-6.319-4.213-6.319-9.479-0.702-1.755-1.404-0.351-2.458-1.053 1.404-1.404-4.213-6.319-4.213-4.564-1.755-2.106-0.702-2.809-1.053-4.213-1.404-0.351-0.351 1.404-1.404 0.351 1.404-2.457-1.755-5.617-3.862-8.074l1.405-0.702c-2.457-1.404-2.809-4.213-4.564-7.373-2.106 3.16 4.213 10.181 3.159 11.585 0 0.351 2.457 3.16 3.16 4.564 2.809 4.915 4.915 10.883 8.777 13.692-0.702-0.351-0.351-2.457 0.702-1.404 0 1.053-0.702 2.106-0.702 3.159 2.106 2.106 3.862 3.862 5.968 5.968-4.564-2.809-9.128-5.617-12.288-9.83 1.755-0.351 3.511 2.809 4.915 2.458-3.511-2.809-2.457-3.862-3.861-7.372-1.404-1.053 0.351 1.404-1.054 1.755-4.564-4.213-8.075-6.67-10.181-10.532 0.351-0.351 0.702-0.702 0.703-1.404-0.351-0.351-0.351-0.351-0.703-0.702 2.106 2.106 2.809 3.862 5.266 4.212-1.053-1.053 0-1.404-1.404-2.457-0.702-1.404-1.755 0.702-2.457-0.351 0.702-1.053 0-2.457 0-3.511-0.702 0-1.404 0-1.756-1.053-0.702-0.351-1.053 0-1.404 0.702-0.351-0.351-0.351-1.053-0.702-1.404v-0.351c-0.351-0.351-0.702-1.053-1.053-1.405-2.809-7.372-4.564-17.202-8.426-23.521 1.053-4.213-0.702-12.638-1.755-14.745 1.053-1.755 0.351-9.83-0.351-11.234-1.755 0.702 0.351 4.564-1.404 5.617-1.755-7.723 1.053-16.5 0.351-23.521 0.702 0 1.404 0 1.404-0.351-1.053-1.053 0.702-3.16 0.351-5.617 1.404-3.16-3.16 4.564-3.16 7.723-0.351 0.702-1.755 0-1.404 1.756 0 2.457 0.702 7.372-0.702 10.883-0.702 0-0.702-0.702-1.404-0.351-0.351 1.755-0.702 3.862-1.053 5.617-0.351-0.702-0.702-1.755-0.703-2.107-1.755-8.777 0-18.958-0.702-26.33 1.404 0 1.404-2.106 2.458-2.808-0.351 2.809-1.053 6.319 0.702 7.021 1.404-13.692 4.213-28.787 10.532-43.532 4.564-10.883 11.234-21.766 19.308-30.543 0.702 1.053-0.351 3.511 0 4.564 7.021-7.372 11.585-16.149 19.309-21.064 0.351 1.755-3.16 3.16-3.16 4.564 3.16-3.16 4.213-2.106 7.724-3.159 1.053-1.404-1.404 0-1.756-1.405 2.106-1.404 3.511-3.16 4.915-4.212 0 0.351-0.351 0.351-0.351 0.702 3.862-1.053 4.213-3.16 7.022-3.862-0.351-0.351-1.053-0.702-2.107-0.351 0.702-0.351 1.755-1.053 2.809-1.404-0.351 0-0.351 0.351-0.702 0.351 2.106-1.053 0.351 0.351 0.351 1.053 0.351 0 0.702-0.351 0.702-0.351-2.106 1.404-3.511 2.106-4.213 4.564 1.053-0.702 1.404 0 2.809-1.054 1.404-0.702-0.351-1.755 0.702-2.457 1.053 0.702 2.457 0.351 3.51 0.351 0-0.702 0.351-1.404 1.054-1.755 0.351-0.702 0-1.053-0.352-1.053 0.351-0.351 0.702-0.351 1.405-0.703 0 0 0.351 0 0.351 0.351 5.968-2.809 12.638-5.266 18.957-7.372 3.862-0.351 8.777-0.351 10.883-2.808-0.702 0-1.404 0.351-1.755 0 0.351 0 1.053-0.351 1.404-0.351 0.702 0.702 1.755 0 0.702 1.404 0.351 0 0.351 0 0.703-0.351 0 0.351 0 0.351 0.351 0.702 0.351 0 0.702-0.351 1.053-1.053 0.351 0 0.702 0 1.053-0.351l-0.351 0.351c2.809-0.702 5.266-0.351 9.128-1.054 0-0.351 0-0.702 0-1.053 0.702 0 1.053-0.351 1.755-0.351v0.351c1.404-0.702 2.809 0.702 2.808 0 0.351 0 0.351 0 0.703 0 0 0.702-0.351 1.053-0.351 1.405 1.755 0 2.809 0 3.51-1.054-0.351-0.351-0.702-0.351-1.053-0.351 0.702 0 1.404-0.351 2.106-0.702 1.053 0.351 1.404 0.702 1.405 2.107 1.755-3.16 7.372 0.702 9.829 0 1.053 0 0.702-1.404 1.405-2.107 0.351 0 0.702 0 1.053 0 1.755 1.404 4.213 2.809 7.372 3.16-2.809-0.702 0.351-1.053 0.702-1.405-0.702 0-0.702-0.351-0.702-0.702 1.053 0 2.106 0.351 3.16 0.351 0 0.702 0.351 1.053 1.053 1.054 0.702 0 0.702-0.351 0.702-1.054 1.053 0 1.755 0 2.809 0.351-0.351 1.404 1.755 1.755 2.457 2.809-2.809-0.702-5.968-1.755-7.021 0 11.234 2.457 23.521 5.968 35.457 11.936 0 0 0 0 0 0.351h0.352c2.106 1.053 4.213 2.106 6.319 3.16 1.404 0.702 2.457 1.404 3.861 2.457 0 0.351 0 0.702 0.703 0.702h0.351c1.404 1.053 2.809 1.755 4.212 2.809 1.404 2.106 2.809 4.915 5.266 4.213 5.266 8.075 10.883 11.234 15.447 19.659 0.351-1.404 1.404 3.16 3.16 3.511-2.809-0.351 1.755 1.755-1.053 1.404 2.457 2.457 3.16 3.511 3.51 6.319-0.702-1.404-1.053-1.755-1.404-0.351-0.351 2.106 2.457-0.351 3.511 1.756-2.106 0-1.404 1.404-1.054 3.159 1.053-1.053 0.702-2.106 1.756-1.755 1.404 1.404-0.702 1.755-0.351 2.809 1.053-1.404 1.404-0.702 2.808 0-1.755 0.351 1.053 2.809-1.053 1.755 1.404 1.755 1.755 2.809 1.053 4.564-1.404-2.106-0.351-3.511-2.457-3.16 4.213 3.511 2.106 11.585 7.021 12.287-3.16 0.702 0 2.106-1.755 2.458 2.106 0.702 1.053 3.511 3.51 4.213-0.351 1.755-1.053 2.809-1.404 4.563 1.053 1.404 1.404 4.213 3.16 4.564-1.053 1.053-0.351 3.862-1.404 4.915 1.404-0.702 2.106-0.702 3.159 0.702-1.755 1.404-0.351 2.809-1.404 3.16 3.16 8.075-0.702 24.575 1.053 30.894-2.106-1.053-1.404 2.457-2.808 2.457 2.457 1.053 0.351 2.809 1.404 4.564-4.915 2.809 0 10.532-6.67 12.287 0.702 4.915-2.106 7.021-4.213 12.288-0.351-0.351-0.351-0.702-0.702-1.054-0.351 2.457-1.755 2.809-1.054 4.915l-1.404-0.702c0 3.862-5.968 5.968-7.372 11.936-0.351 1.755-5.617 6.319-7.022 8.777-0.702 1.053-0.351 2.809-1.053 0.351-0.351 0.351-1.053 0.351-1.404 0.351-0.351 2.457-2.457 3.16-3.16 6.319-0.702 0.351-1.755-0.702-2.457 0.351 0 0.702 0.702 1.755 0.351 2.458 6.319-0.351 6.319-7.723 11.234-10.181-0.351 1.053-2.457 2.106-1.053 2.808 1.053 0 4.213-3.511 2.457-3.159 1.053 0.702-1.053 1.404-1.404 1.053 1.755-1.404 1.053-3.16 2.458-3.511 1.053 0.702-1.053 2.457 1.053 2.107 1.404-3.16 3.16-3.511 5.266-5.266-1.404 1.404 1.755 1.755 0.351 3.159-5.266 1.053-3.511 7.021-8.777 7.724-1.404 1.053-0.351 1.404-0.702 2.457-1.755-1.053-5.617 4.915-4.213 4.564-1.755 1.755-2.809 1.053-4.212 1.404-0.351 1.404 1.404 0.351 0.702 1.405-2.457-1.053-5.617 2.457-7.724 4.915l-1.053-1.054c-1.053 2.809-3.862 3.16-7.021 5.266 3.511 1.755 9.479-5.617 11.234-4.564 0.351 0 3.16-2.809 4.213-3.861 4.564-3.511 10.181-6.319 12.287-10.181-0.351 0.702-2.457 0.702-1.404-0.351 1.053-0.351 2.106 0.351 3.159 0.351 5.617-7.723 12.638-14.043 17.905-23.17 0.351-0.351 0.702-1.053 1.053-1.756-0.702 2.106-1.755 3.862-2.458 5.968-5.617 3.862-7.723 15.096-14.393 16.851 0.351 3.862-3.16 4.915-4.915 9.479-1.053 1.404-1.755-1.053-2.809 0.702 1.053 4.915-8.777 4.564-8.425 9.128-0.702 0.351-1.755 0.702-2.458 1.404h-0.351c-0.351 0.351-0.351 0.351-0.702 0.702-1.755 1.053-3.16 2.106-4.564 3.16-4.915 2.809-11.585 4.915-16.851 7.723v-0.351c-1.404 0.702-3.16 0.351-2.809 1.756-1.053 0.702-2.106 1.404-3.159 2.106-0.351 0-0.351 0-0.702 0 0 0-0.351-0.351-0.702-0.351-0.702 0-0.702 0-1.054 0.351-4.564 0.351-10.532 2.457-12.287 3.862-1.755-1.053-9.83 0.702-11.234 1.404 0.702 1.053 2.809 0 4.564 0-1.053 0.351-2.106 0.702-2.458 1.404-0.351 0-0.351 0-0.702 0-0.351-1.053-1.404 0-1.755-0.351h0.351c-0.351-1.404-1.404-2.106-3.16-1.755 0 0.702 0 1.053-0.351 1.755 0.702 0 2.809-1.053 2.809 0-0.351 0-0.351 0.351 0 0.351-0.702 0.702-1.755 0.702-2.458 1.054-1.404 0-3.16 0-4.563 0-0.351-0.351-0.702-0.351-1.405-0.703-0.351 0.351-1.053 0.351-1.404 0.703-2.106 0-4.564 0.351-6.319 0.702 0-0.702 0-1.404-0.702-1.405-1.053 1.404-3.16-0.351-5.617 0.352-2.457-0.702 1.404 1.053 4.915 1.755-0.351 0.351-0.702 0.702-1.756 1.053M116.068 308.271c-4.915-4.564-15.096-6.67-16.851-10.181-2.809-0.351-7.021-5.617-10.532-6.319 1.755 0 0.351-1.053 0-1.755-0.702 0.702-1.404 1.053-2.106 1.053 0-2.809-2.809-4.564-5.266-6.319 1.755 1.053 3.16 1.755 5.266 2.106 0-0.702 0-1.404 0.702-1.404 2.457 2.457 5.266 4.915 8.425 7.372 4.213 3.862 25.979 13.692 29.841 15.447 0 0-0.702 1.404-0.351 1.404 1.755 1.053 3.16-1.053 3.511 1.404-5.617 0.702-7.723-3.16-12.639-2.808M277.909 226.824v0.351 0c-0.351 0 0-0.351 0-0.351M136.079 64.281c-0.351 0.351-0.702 0.351-0.702 0.351 0-0.351 0.351-0.351 0.702-0.351M129.409 66.036c0 0.351 0 0.351 0 0 0 0.351 0 0.351 0 0 0 0.351 0 0 0 0M106.238 73.408v0c0.351-0.351 0.351-0.351 0.703-0.351-0.351 0-0.702 0.351-0.703 0.351M162.409 61.823c-0.702 0-1.053 0-1.404-0.351 0.351 0 0.702 0 1.053 0h0.351c0 0 0 0 0 0.351M168.728 62.525c-0.351-0.351-1.404-0.702-2.457-0.702 0-0.351 0.351-0.702 0.351-0.702 0.351 0 0.702 0 1.053 0 0 0 0.351 0 0.351 0.351 0 0 0 0 0-0.351 0.351 0 0.351 0 0.702 0 0.351 0.702 0.702 1.053 0 1.404M180.313 63.579c-1.755 0.351-2.809-0.351-4.564-1.405 1.053 0 2.457 0.351 3.511 0.702 0.351 0 0.702 0.351 1.053 0.703M305.292 113.43c-0.702 0.351-1.053 0.351-1.755-1.053-5.617-11.936-15.798-29.138-30.543-43.532-14.394-14.745-33.702-26.681-51.255-33.001 1.053 0.351 2.457 1.053 1.755 1.756-15.447-5.968-30.192-9.479-44.234-10.883-37.915-5.968-77.585 2.106-108.128 21.766 0.351 0.702 0.351 1.053-0.702 1.755-11.234 7.021-27.032 19.309-39.671 35.458-12.638 16.149-22.468 36.511-26.681 54.766 0.351-1.053 0.702-2.809 1.405-2.107-9.128 36.16-6.67 67.053 5.968 93.735 0.702-0.702-1.755-4.213 0.351-3.862 1.404 3.862 3.16 8.075 5.266 11.936 2.457 5.617 5.266 12.989 9.128 14.745-9.83-19.309-16.5-41.426-17.203-61.085 1.404 2.809 1.053 8.777 3.16 11.234 0.702-13.34-2.457-31.245 2.106-43.883-1.053 6.67-1.755 15.798-1.053 24.925 0 6.67 3.16 25.277 5.266 27.032-0.351-0.351-0.351-2.106 0-2.106 1.053 2.106-1.404 3.16 0.351 3.511 0-0.702 0.351-0.702 0.702-0.703 3.511 7.723 8.075 19.66 11.585 25.628 4.213 7.723 9.83 14.745 16.149 21.064 0 0.351 0.351 0.351 0.352 0.702 0.702 1.755 3.16 3.862 3.861 5.266 0.351 0.702-0.351 1.755 0 2.458 5.266 9.83 12.989 19.66 22.468 27.383 5.968 7.021 15.447 14.394 27.032 20.713 11.234 5.968 24.223 10.883 36.16 13.691 8.426 2.106 18.606 2.457 24.926 3.862 8.426 1.755 23.17-0.702 30.542-2.107 44.234-6.67 88.117-36.862 110.235-80.393 22.819-43.883 22.117-97.596 2.457-138.671" fill="white" fill-rule="nonzero" stroke="none" stroke-width="1" stroke-linecap="butt" stroke-linejoin="miter" stroke-miterlimit="10" stroke-dasharray="" stroke-dashoffset="0" font-family="none" font-weight="none" font-size="none" text-anchor="none" style="mix-blend-mode: normal"></path></g><g transform="matrix(1,0,0,1,93.87829211710189,108)"><svg viewBox="0 0 132.24341576579621 144" height="144" width="132.24341576579621"><g><svg viewBox="0 0 132.24341576579621 144" height="144" width="132.24341576579621"><g><svg viewBox="0 0 160 174.22417491698764" height="144" width="132.24341576579621"><g transform="matrix(1,0,0,1,0,88.72940378013102)"><svg viewBox="0 0 160 85.49477113685661" height="85.49477113685661" width="160"><g id="SvgjsG10174"><svg viewBox="0 0 160 85.49477113685661" height="85.49477113685661" width="160" id="SvgjsSvg10173"><g><svg viewBox="0 0 160 59.279723729649724" height="59.279723729649724" width="160"><g transform="matrix(1,0,0,1,0,0)"><svg width="160" viewBox="-2.549999952316284 -37 101.34000396728516 37.54999923706055" height="59.279723729649724" data-palette-color="url(#d427b005-550a-4944-9b75-45f733a315a2)"></svg></g></svg></g><g transform="matrix(1,0,0,1,0,73.27424378885051)"><svg viewBox="0 0 160 12.2205273480061" height="12.2205273480061" width="160"><g transform="matrix(1,0,0,1,0,0)"><svg width="160" viewBox="3.0999999046325684 -35 458.8999938964844 35.04999923706055" height="12.2205273480061" data-palette-color="url(#d7d34f8a-321d-4ef1-a8b7-1d83e4a7d5af)"></svg></g></svg></g></svg></g></svg></g><g transform="matrix(1,0,0,1,30.560000000000002,0)"><svg viewBox="0 0 98.88 74.73488372093023" height="74.73488372093023" width="98.88"><g><svg xmlns="http://www.w3.org/2000/svg" xmlns:xlink="http://www.w3.org/1999/xlink" version="1.1" x="0" y="0" viewBox="6.5 18 86 65" enable-background="new 0 0 100 100" xml:space="preserve" height="74.73488372093023" width="98.88" class="icon-icon-0" data-fill-palette-color="accent" id="SvgjsSvg10172"></svg></g></svg></g><g></g></svg></g></svg></g></svg></g></svg></g><defs><mask></mask></defs><mask><g id="SvgjsG10171"><svg viewBox="0 0 320 360" height="360" width="320"><g><svg></svg></g><g><svg viewBox="0 0 320 360" height="360" width="320"><g></g><g transform="matrix(1,0,0,1,93.87829211710189,108)"><svg viewBox="0 0 132.24341576579621 144" height="144" width="132.24341576579621"><g><svg viewBox="0 0 132.24341576579621 144" height="144" width="132.24341576579621"><g><svg viewBox="0 0 160 174.22417491698764" height="144" width="132.24341576579621"><g transform="matrix(1,0,0,1,0,88.72940378013102)"><svg viewBox="0 0 160 85.49477113685661" height="85.49477113685661" width="160"><g id="SvgjsG10170"><svg viewBox="0 0 160 85.49477113685661" height="85.49477113685661" width="160" id="SvgjsSvg10169"><g><svg viewBox="0 0 160 59.279723729649724" height="59.279723729649724" width="160"><g transform="matrix(1,0,0,1,0,0)"><svg width="160" viewBox="-2.549999952316284 -37 101.34000396728516 37.54999923706055" height="59.279723729649724" data-palette-color="url(#d427b005-550a-4944-9b75-45f733a315a2)"></svg></g></svg></g><g transform="matrix(1,0,0,1,0,73.27424378885051)"><svg viewBox="0 0 160 12.2205273480061" height="12.2205273480061" width="160"><g transform="matrix(1,0,0,1,0,0)"><svg width="160" viewBox="3.0999999046325684 -35 458.8999938964844 35.04999923706055" height="12.2205273480061" data-palette-color="url(#d7d34f8a-321d-4ef1-a8b7-1d83e4a7d5af)"></svg></g></svg></g></svg></g></svg></g><g transform="matrix(1,0,0,1,30.560000000000002,0)"><svg viewBox="0 0 98.88 74.73488372093023" height="74.73488372093023" width="98.88"><g><svg xmlns="http://www.w3.org/2000/svg" xmlns:xlink="http://www.w3.org/1999/xlink" version="1.1" x="0" y="0" viewBox="6.5 18 86 65" enable-background="new 0 0 100 100" xml:space="preserve" height="74.73488372093023" width="98.88" class="icon-icon-0" data-fill-palette-color="accent" id="SvgjsSvg10167"></svg></g></svg></g><g></g></svg></g></svg></g></svg></g></svg></g><defs><mask></mask></defs></svg></g></mask><mask><g id="SvgjsG10166"><svg viewBox="0 0 320 360" height="360" width="320"><g><svg></svg></g><g><svg viewBox="0 0 320 360" height="360" width="320"><g></g><g transform="matrix(1,0,0,1,93.87829211710189,108)"><svg viewBox="0 0 132.24341576579621 144" height="144" width="132.24341576579621"><g><svg viewBox="0 0 132.24341576579621 144" height="144" width="132.24341576579621"><g><svg viewBox="0 0 160 174.22417491698764" height="144" width="132.24341576579621"><g transform="matrix(1,0,0,1,0,88.72940378013102)"><svg viewBox="0 0 160 85.49477113685661" height="85.49477113685661" width="160"><g id="SvgjsG10165"><svg viewBox="0 0 160 85.49477113685661" height="85.49477113685661" width="160" id="SvgjsSvg10164"><g><svg viewBox="0 0 160 59.279723729649724" height="59.279723729649724" width="160"><g transform="matrix(1,0,0,1,0,0)"><svg width="160" viewBox="-2.549999952316284 -37 101.34000396728516 37.54999923706055" height="59.279723729649724" data-palette-color="url(#d427b005-550a-4944-9b75-45f733a315a2)"></svg></g></svg></g><g transform="matrix(1,0,0,1,0,73.27424378885051)"><svg viewBox="0 0 160 12.2205273480061" height="12.2205273480061" width="160"><g transform="matrix(1,0,0,1,0,0)"><svg width="160" viewBox="3.0999999046325684 -35 458.8999938964844 35.04999923706055" height="12.2205273480061" data-palette-color="url(#d7d34f8a-321d-4ef1-a8b7-1d83e4a7d5af)"></svg></g></svg></g></svg></g></svg></g><g transform="matrix(1,0,0,1,30.560000000000002,0)"><svg viewBox="0 0 98.88 74.73488372093023" height="74.73488372093023" width="98.88"><g><svg xmlns="http://www.w3.org/2000/svg" xmlns:xlink="http://www.w3.org/1999/xlink" version="1.1" x="0" y="0" viewBox="6.5 18 86 65" enable-background="new 0 0 100 100" xml:space="preserve" height="74.73488372093023" width="98.88" class="icon-icon-0" data-fill-palette-color="accent" id="SvgjsSvg10162"></svg></g></svg></g><g></g></svg></g></svg></g></svg></g></svg></g><defs><mask></mask></defs><mask><g id="SvgjsG10161"><svg viewBox="0 0 320 360" height="360" width="320"><g><svg></svg></g><g><svg viewBox="0 0 320 360" height="360" width="320"><g></g><g transform="matrix(1,0,0,1,93.87829211710189,108)"><svg viewBox="0 0 132.24341576579621 144" height="144" width="132.24341576579621"><g><svg viewBox="0 0 132.24341576579621 144" height="144" width="132.24341576579621"><g><svg viewBox="0 0 160 174.22417491698764" height="144" width="132.24341576579621"><g transform="matrix(1,0,0,1,0,88.72940378013102)"><svg viewBox="0 0 160 85.49477113685661" height="85.49477113685661" width="160"><g id="SvgjsG10160"><svg viewBox="0 0 160 85.49477113685661" height="85.49477113685661" width="160" id="SvgjsSvg10159"><g><svg viewBox="0 0 160 59.279723729649724" height="59.279723729649724" width="160"><g transform="matrix(1,0,0,1,0,0)"><svg width="160" viewBox="-2.549999952316284 -37 101.34000396728516 37.54999923706055" height="59.279723729649724" data-palette-color="url(#d427b005-550a-4944-9b75-45f733a315a2)"></svg></g></svg></g><g transform="matrix(1,0,0,1,0,73.27424378885051)"><svg viewBox="0 0 160 12.2205273480061" height="12.2205273480061" width="160"><g transform="matrix(1,0,0,1,0,0)"><svg width="160" viewBox="3.0999999046325684 -35 458.8999938964844 35.04999923706055" height="12.2205273480061" data-palette-color="url(#d7d34f8a-321d-4ef1-a8b7-1d83e4a7d5af)"></svg></g></svg></g></svg></g></svg></g><g transform="matrix(1,0,0,1,30.560000000000002,0)"><svg viewBox="0 0 98.88 74.73488372093023" height="74.73488372093023" width="98.88"><g><svg xmlns="http://www.w3.org/2000/svg" xmlns:xlink="http://www.w3.org/1999/xlink" version="1.1" x="0" y="0" viewBox="6.5 18 86 65" enable-background="new 0 0 100 100" xml:space="preserve" height="74.73488372093023" width="98.88" class="icon-icon-0" data-fill-palette-color="accent" id="SvgjsSvg10158"></svg></g></svg></g><g></g></svg></g></svg></g></svg></g></svg></g><defs><mask></mask></defs></svg></g></mask></svg></g></mask><mask><g id="SvgjsG10157"><svg viewBox="0 0 320 360" height="360" width="320"><g><svg></svg></g><g><svg viewBox="0 0 320 360" height="360" width="320"><g></g><g transform="matrix(1,0,0,1,93.87829211710189,108)"><svg viewBox="0 0 132.24341576579621 144" height="144" width="132.24341576579621"><g><svg viewBox="0 0 132.24341576579621 144" height="144" width="132.24341576579621"><g><svg viewBox="0 0 160 174.22417491698764" height="144" width="132.24341576579621"><g transform="matrix(1,0,0,1,0,88.72940378013102)"><svg viewBox="0 0 160 85.49477113685661" height="85.49477113685661" width="160"><g id="SvgjsG10156"><svg viewBox="0 0 160 85.49477113685661" height="85.49477113685661" width="160" id="SvgjsSvg10155"><g><svg viewBox="0 0 160 59.279723729649724" height="59.279723729649724" width="160"><g transform="matrix(1,0,0,1,0,0)"><svg width="160" viewBox="-2.549999952316284 -37 101.34000396728516 37.54999923706055" height="59.279723729649724" data-palette-color="url(#d427b005-550a-4944-9b75-45f733a315a2)"></svg></g></svg></g><g transform="matrix(1,0,0,1,0,73.27424378885051)"><svg viewBox="0 0 160 12.2205273480061" height="12.2205273480061" width="160"><g transform="matrix(1,0,0,1,0,0)"><svg width="160" viewBox="3.0999999046325684 -35 458.8999938964844 35.04999923706055" height="12.2205273480061" data-palette-color="url(#d7d34f8a-321d-4ef1-a8b7-1d83e4a7d5af)"></svg></g></svg></g></svg></g></svg></g><g transform="matrix(1,0,0,1,30.560000000000002,0)"><svg viewBox="0 0 98.88 74.73488372093023" height="74.73488372093023" width="98.88"><g><svg xmlns="http://www.w3.org/2000/svg" xmlns:xlink="http://www.w3.org/1999/xlink" version="1.1" x="0" y="0" viewBox="6.5 18 86 65" enable-background="new 0 0 100 100" xml:space="preserve" height="74.73488372093023" width="98.88" class="icon-icon-0" data-fill-palette-color="accent" id="SvgjsSvg10154"></svg></g></svg></g><g></g></svg></g></svg></g></svg></g></svg></g><defs><mask></mask></defs><mask><g id="SvgjsG10153"><svg viewBox="0 0 320 360" height="360" width="320"><g><svg></svg></g><g><svg viewBox="0 0 320 360" height="360" width="320"><g></g><g transform="matrix(1,0,0,1,93.87829211710189,108)"><svg viewBox="0 0 132.24341576579621 144" height="144" width="132.24341576579621"><g><svg viewBox="0 0 132.24341576579621 144" height="144" width="132.24341576579621"><g><svg viewBox="0 0 160 174.22417491698764" height="144" width="132.24341576579621"><g transform="matrix(1,0,0,1,0,88.72940378013102)"><svg viewBox="0 0 160 85.49477113685661" height="85.49477113685661" width="160"><g id="SvgjsG10152"><svg viewBox="0 0 160 85.49477113685661" height="85.49477113685661" width="160" id="SvgjsSvg10151"><g><svg viewBox="0 0 160 59.279723729649724" height="59.279723729649724" width="160"><g transform="matrix(1,0,0,1,0,0)"><svg width="160" viewBox="-2.549999952316284 -37 101.34000396728516 37.54999923706055" height="59.279723729649724" data-palette-color="url(#d427b005-550a-4944-9b75-45f733a315a2)"></svg></g></svg></g><g transform="matrix(1,0,0,1,0,73.27424378885051)"><svg viewBox="0 0 160 12.2205273480061" height="12.2205273480061" width="160"><g transform="matrix(1,0,0,1,0,0)"><svg width="160" viewBox="3.0999999046325684 -35 458.8999938964844 35.04999923706055" height="12.2205273480061" data-palette-color="url(#d7d34f8a-321d-4ef1-a8b7-1d83e4a7d5af)"></svg></g></svg></g></svg></g></svg></g><g transform="matrix(1,0,0,1,30.560000000000002,0)"><svg viewBox="0 0 98.88 74.73488372093023" height="74.73488372093023" width="98.88"><g><svg xmlns="http://www.w3.org/2000/svg" xmlns:xlink="http://www.w3.org/1999/xlink" version="1.1" x="0" y="0" viewBox="6.5 18 86 65" enable-background="new 0 0 100 100" xml:space="preserve" height="74.73488372093023" width="98.88" class="icon-icon-0" data-fill-palette-color="accent" id="SvgjsSvg10150"></svg></g></svg></g><g></g></svg></g></svg></g></svg></g></svg></g><defs><mask></mask></defs></svg></g></mask><mask><g id="SvgjsG10149"><svg viewBox="0 0 320 360" height="360" width="320"><g><svg></svg></g><g><svg viewBox="0 0 320 360" height="360" width="320"><g></g><g transform="matrix(1,0,0,1,93.87829211710189,108)"><svg viewBox="0 0 132.24341576579621 144" height="144" width="132.24341576579621"><g><svg viewBox="0 0 132.24341576579621 144" height="144" width="132.24341576579621"><g><svg viewBox="0 0 160 174.22417491698764" height="144" width="132.24341576579621"><g transform="matrix(1,0,0,1,0,88.72940378013102)"><svg viewBox="0 0 160 85.49477113685661" height="85.49477113685661" width="160"><g id="SvgjsG10148"><svg viewBox="0 0 160 85.49477113685661" height="85.49477113685661" width="160" id="SvgjsSvg10147"><g><svg viewBox="0 0 160 59.279723729649724" height="59.279723729649724" width="160"><g transform="matrix(1,0,0,1,0,0)"><svg width="160" viewBox="-2.549999952316284 -37 101.34000396728516 37.54999923706055" height="59.279723729649724" data-palette-color="url(#d427b005-550a-4944-9b75-45f733a315a2)"></svg></g></svg></g><g transform="matrix(1,0,0,1,0,73.27424378885051)"><svg viewBox="0 0 160 12.2205273480061" height="12.2205273480061" width="160"><g transform="matrix(1,0,0,1,0,0)"><svg width="160" viewBox="3.0999999046325684 -35 458.8999938964844 35.04999923706055" height="12.2205273480061" data-palette-color="url(#d7d34f8a-321d-4ef1-a8b7-1d83e4a7d5af)"></svg></g></svg></g></svg></g></svg></g><g transform="matrix(1,0,0,1,30.560000000000002,0)"><svg viewBox="0 0 98.88 74.73488372093023" height="74.73488372093023" width="98.88"><g><svg xmlns="http://www.w3.org/2000/svg" xmlns:xlink="http://www.w3.org/1999/xlink" version="1.1" x="0" y="0" viewBox="6.5 18 86 65" enable-background="new 0 0 100 100" xml:space="preserve" height="74.73488372093023" width="98.88" class="icon-icon-0" data-fill-palette-color="accent" id="SvgjsSvg10146"></svg></g></svg></g><g></g></svg></g></svg></g></svg></g></svg></g><defs><mask></mask></defs><mask><g id="SvgjsG10145"><svg viewBox="0 0 320 360" height="360" width="320"><g><svg></svg></g><g><svg viewBox="0 0 320 360" height="360" width="320"><g></g><g transform="matrix(1,0,0,1,93.87829211710189,108)"><svg viewBox="0 0 132.24341576579621 144" height="144" width="132.24341576579621"><g><svg viewBox="0 0 132.24341576579621 144" height="144" width="132.24341576579621"><g><svg viewBox="0 0 160 174.22417491698764" height="144" width="132.24341576579621"><g transform="matrix(1,0,0,1,0,88.72940378013102)"><svg viewBox="0 0 160 85.49477113685661" height="85.49477113685661" width="160"><g id="SvgjsG10144"><svg viewBox="0 0 160 85.49477113685661" height="85.49477113685661" width="160" id="SvgjsSvg10143"><g><svg viewBox="0 0 160 59.279723729649724" height="59.279723729649724" width="160"><g transform="matrix(1,0,0,1,0,0)"><svg width="160" viewBox="-2.549999952316284 -37 101.34000396728516 37.54999923706055" height="59.279723729649724" data-palette-color="url(#d427b005-550a-4944-9b75-45f733a315a2)"></svg></g></svg></g><g transform="matrix(1,0,0,1,0,73.27424378885051)"><svg viewBox="0 0 160 12.2205273480061" height="12.2205273480061" width="160"><g transform="matrix(1,0,0,1,0,0)"><svg width="160" viewBox="3.0999999046325684 -35 458.8999938964844 35.04999923706055" height="12.2205273480061" data-palette-color="url(#d7d34f8a-321d-4ef1-a8b7-1d83e4a7d5af)"></svg></g></svg></g></svg></g></svg></g><g transform="matrix(1,0,0,1,30.560000000000002,0)"><svg viewBox="0 0 98.88 74.73488372093023" height="74.73488372093023" width="98.88"><g><svg xmlns="http://www.w3.org/2000/svg" xmlns:xlink="http://www.w3.org/1999/xlink" version="1.1" x="0" y="0" viewBox="6.5 18 86 65" enable-background="new 0 0 100 100" xml:space="preserve" height="74.73488372093023" width="98.88" class="icon-icon-0" data-fill-palette-color="accent" id="SvgjsSvg10142"></svg></g></svg></g><g></g></svg></g></svg></g></svg></g></svg></g><defs><mask></mask></defs></svg></g></mask></svg></g></mask></svg></g></mask></svg></g></mask><linearGradient x1="0" x2="1" y1="0.5" y2="0.5" id="ae5ca8b9-b614-4e4f-903f-b0ddf08986ff"><stop stop-color="#f00b51" offset="0"></stop><stop stop-color="#730062" offset="1"></stop></linearGradient></svg><rect width="320" height="360" fill="none" stroke="none" visibility="hidden"></rect></g></svg></g></svg>